<?xml version="1.0" encoding="UTF-8"?>
<svg width="25px" height="26px" viewBox="0 0 25 26" version="1.1" xmlns="http://www.w3.org/2000/svg" xmlns:xlink="http://www.w3.org/1999/xlink">
    <!-- Generator: Sketch 46.2 (44496) - http://www.bohemiancoding.com/sketch -->
    <title>Imported-Layers</title>
    <desc>Created with Sketch.</desc>
    <defs></defs>
    <g id="Mockup" stroke="none" stroke-width="1" fill="none" fill-rule="evenodd">
        <g id="Home_screen-Copy-15" transform="translate(-1163.000000, -34.000000)" fill="#FFFFFF">
            <g id="Menu" transform="translate(138.000000, 29.000000)">
                <path d="M1044.15136,14.6029616 C1044.15136,9.29938312 1039.86419,5 1034.57568,5 C1029.28717,5 1025,9.29938312 1025,14.6029616 C1025,19.9065401 1029.28717,24.2059233 1034.57568,24.2059233 C1036.55101,24.2059233 1038.38543,23.6050522 1039.90933,22.5775354 L1047.81309,30.4893807 L1049.75013,28.5523377 L1041.94211,20.7365104 C1043.32101,19.0724543 1044.15136,16.9351095 1044.15136,14.6029616 Z M1034.57568,21.4622199 C1030.79876,21.4622199 1027.73591,18.3906441 1027.73591,14.6029616 C1027.73591,10.8152792 1030.79876,7.74370332 1034.57568,7.74370332 C1038.3526,7.74370332 1041.41545,10.8152792 1041.41545,14.6029616 C1041.41545,18.3906441 1038.3526,21.4622199 1034.57568,21.4622199 L1034.57568,21.4622199 L1034.57568,21.4622199 Z" id="Imported-Layers"></path>
            </g>
        </g>
    </g>
</svg>