<?xml version="1.0" encoding="UTF-8"?>
<svg width="25px" height="27px" viewBox="0 0 25 27" version="1.1" xmlns="http://www.w3.org/2000/svg" xmlns:xlink="http://www.w3.org/1999/xlink">
    <!-- Generator: Sketch 46.2 (44496) - http://www.bohemiancoding.com/sketch -->
    <title>if_download_216183</title>
    <desc>Created with Sketch.</desc>
    <defs></defs>
    <g id="Mockup" stroke="none" stroke-width="1" fill="none" fill-rule="evenodd">
        <g id="Desktop-HD-Copy-3" transform="translate(-930.000000, -1441.000000)" fill-rule="nonzero">
            <g id="content_page-copy" transform="translate(24.000000, 833.000000)">
                <g id="if_download_216183" transform="translate(906.000000, 608.000000)">
                    <path d="M18.5901186,7.5186087 C18.3254988,7.25704348 17.9628716,7.12486957 17.6002444,7.12486957 C17.2376172,7.12486957 16.8749901,7.25704348 16.6103702,7.5186087 L13.3999296,10.7088696 L13.3999296,1.39130435 C13.3999296,0.623304348 12.7726826,0 11.9998246,0 C11.2269667,0 10.5997197,0.623304348 10.5997197,1.39130435 L10.5997197,10.7088696 L7.38927908,7.5186087 C7.12465925,7.25704348 6.77323291,7.11095652 6.39940489,7.11095652 C6.02557687,7.11095652 5.67415053,7.25704348 5.4095307,7.5186087 C4.86348977,8.06121739 4.86348977,8.94330435 5.4095307,9.48591304 L11.9998246,16 L18.5929188,9.48313043 C19.1361595,8.94469565 19.1361595,8.06121739 18.5901186,7.5186087 Z" id="Shape" fill="#FF2014"></path>
                    <path d="M24.9819444,19.1538462 C24.9819444,19.0165385 24.9763889,18.8779231 24.9277778,18.7406154 L22.15,10.8944615 C21.9611111,10.3596154 21.4319444,10 20.8333333,10 L20.5291667,10 C20.3986111,10.2458462 20.2375,10.4812308 20.0194444,10.6865385 L17.9611111,12.6153846 L19.8333333,12.6153846 L22.1486111,19.1538462 L2.85277778,19.1538462 L5.16805556,12.6153846 L7.04027778,12.6153846 L4.98055556,10.6865385 C4.7625,10.4812308 4.6,10.2458462 4.47083333,10 L4.16666667,10 C3.56805556,10 3.03888889,10.3596154 2.85,10.8944615 L0.0722222222,18.7406154 C0.0236111111,18.8779231 0.0180555556,19.0165385 0.0180555556,19.1538462 C0,19.1538462 0,25.6923077 0,25.6923077 C0,26.4154615 0.620833333,27 1.38888889,27 L23.6111111,27 C24.3791667,27 25,26.4154615 25,25.6923077 C25,25.6923077 25,19.1538462 24.9819444,19.1538462 Z" id="Shape" fill="#FFFFFF"></path>
                </g>
            </g>
        </g>
    </g>
</svg>