<?xml version="1.0" encoding="UTF-8"?>
<svg width="136px" height="27px" viewBox="0 0 136 27" version="1.1" xmlns="http://www.w3.org/2000/svg" xmlns:xlink="http://www.w3.org/1999/xlink">
    <!-- Generator: Sketch 46.2 (44496) - http://www.bohemiancoding.com/sketch -->
    <title>Logo</title>
    <desc>Created with Sketch.</desc>
    <defs></defs>
    <g id="Mockup" stroke="none" stroke-width="1" fill="none" fill-rule="evenodd">
        <g id="Home_screen-Copy-15" transform="translate(-138.000000, -33.000000)">
            <g id="Menu" transform="translate(138.000000, 29.000000)">
                <g id="Logo" transform="translate(0.000000, 4.000000)">
                    <polyline id="Fill-1" fill="#FFFFFF" points="23.6829113 7 19.7739945 21.1833333 19.6985174 21.1833333 16.2365042 7 11.9531815 7 8.34021423 21.1833333 8.26473718 21.1833333 4.50677449 7 0 7 5.96070086 26 10.4287437 26 13.9602752 11.8803922 14.0357523 11.8803922 17.6159467 26 21.9687877 26 28 7 23.6829113 7"></polyline>
                    <polygon id="Fill-2" fill="#FFFFFF" points="30 26 34 26 34 7 30 7"></polygon>
                    <path d="M37,7.53041338 L40.8813276,7.53041338 L40.8813276,11.292531 L40.9539572,11.292531 C41.4294392,9.22010146 43.8969099,7 46.4331367,7 C47.3802271,7 47.6339467,7.07735195 48,7.11452107 L48,11.2543573 C47.4160578,11.1790145 46.8011269,11.0675072 46.222995,11.0675072 C43.3855973,11.0675072 41.1379523,13.4392988 41.1379523,17.733839 L41.1379523,27 L37,27 L37,7.53041338" id="Fill-3" fill="#FFFFFF"></path>
                    <path d="M61.5478471,15.3314571 C61.3977745,12.6884147 59.5203366,10.3018452 56.5750356,10.3018452 C53.5490834,10.3018452 51.4807369,12.5043806 51.3663959,15.3314571 L61.5478471,15.3314571 L61.5478471,15.3314571 L61.5478471,15.3314571 Z M51.3663959,18.082179 C51.3663959,21.0560912 53.0519044,23.7001126 56.6893766,23.7001126 C59.215087,23.7001126 60.7454185,22.6360433 61.5090528,20.545103 L65.6426832,20.545103 C64.6891611,24.690764 61.0139156,27 56.6893766,27 C50.4914833,27 47,22.8553179 47,17.0190886 C47,11.6223875 50.6762665,7 56.5750356,7 C62.8107023,7 66.6452085,12.3918066 65.9101594,18.082179 L51.3663959,18.082179 L51.3663959,18.082179 L51.3663959,18.082179 Z" id="Fill-4" fill="#FFFFFF"></path>
                    <path d="M80.7927829,13.8601635 C80.4621104,11.5499486 78.768398,10.3028241 76.442865,10.3028241 C74.2639694,10.3028241 71.1993439,11.4373746 71.1993439,17.2021438 C71.1993439,20.3522588 72.604702,23.7001126 76.2578458,23.7001126 C78.6857299,23.7001126 80.3873155,22.0878567 80.7927829,19.365523 L85,19.365523 C84.222526,24.2864764 81.1677419,27 76.2578458,27 C70.2742482,27 67,22.782879 67,17.2021438 C67,11.473594 70.1305631,7 76.4044833,7 C80.8331329,7 84.5915801,9.19861974 85,13.8601635 L80.7927829,13.8601635" id="Fill-5" fill="#FFFFFF"></path>
                    <path d="M98.7802999,16.9814017 C97.4903826,17.8281128 95.4665977,17.7860219 93.6245605,18.1207909 C91.8149431,18.4144479 90.1939504,19.0722396 90.1939504,21.2736883 C90.1939504,23.14722 92.5871251,23.6992952 94.0607549,23.6992952 C95.9067218,23.6992952 98.7802999,22.7439311 98.7802999,20.101018 L98.7802999,16.9814017 L98.7802999,16.9814017 L98.7802999,16.9814017 Z M102.976215,22.2672279 C102.976215,23.2930697 103.199224,23.6992952 103.973371,23.6992952 C104.2288,23.6992952 104.564788,23.6992952 105,23.6239233 L105,26.5242756 C104.376163,26.7445184 103.054809,27 102.352378,27 C100.656722,27 99.4355739,26.4107283 99.1084281,24.6898982 C97.4559979,26.3040329 94.7651499,27 92.5154085,27 C89.0936401,27 86,25.1666014 86,21.46065 C86,16.7249413 89.7901758,15.9526233 93.3278697,15.5493344 C96.3478283,15.0001958 99.0406412,15.3320282 99.0406412,12.8711825 C99.0406412,10.7069303 96.7859876,10.3026625 95.0972079,10.3026625 C92.7374354,10.3026625 91.0810755,11.2560689 90.8993278,13.311668 L86.6965357,13.311668 C86.9922441,8.43402506 91.1527921,7 95.3516546,7 C99.0720786,7 102.976215,8.5054816 102.976215,12.5050901 L102.976215,22.2672279 L102.976215,22.2672279 L102.976215,22.2672279 Z" id="Fill-6" fill="#FFFFFF"></path>
                    <path d="M107,7.53041338 L110.885543,7.53041338 L110.885543,11.292531 L110.959148,11.292531 C111.433703,9.22010146 113.897517,7 116.441715,7 C117.388889,7 117.63682,7.07735195 118,7.11452107 L118,11.2543573 C117.420849,11.1790145 116.80199,11.0675072 116.227681,11.0675072 C113.38616,11.0675072 111.142191,13.4392988 111.142191,17.733839 L111.142191,27 L107,27 L107,7.53041338" id="Fill-7" fill="#FFFFFF"></path>
                    <path d="M126.541575,23.6648223 C130.324945,23.6648223 131.916693,20.2119091 131.916693,16.8737633 C131.916693,12.644192 129.876524,10.1232686 126.609878,10.1232686 C122.646348,10.1232686 121.226842,13.6474166 121.226842,17.0953829 C121.226842,20.3959326 122.864124,23.6648223 126.541575,23.6648223 M136,26.4825577 L131.997864,26.4825577 L131.997864,23.8874313 L131.916693,23.8874313 C130.803063,26.0739465 128.393665,27 125.981296,27 C119.931072,27 117,22.5161598 117,16.7649322 C117,9.8254672 121.113994,6.78512276 125.316088,6.78512276 C127.726477,6.78512276 130.399187,7.67555881 131.695947,9.78886039 L131.777118,9.78886039 L131.777118,0 L136,0 L136,26.4825577" id="Fill-8" fill="#FFFFFF"></path>
                    <polygon id="Fill-9" fill="#D5232A" points="30 4 34 4 34 0 30 0"></polygon>
                </g>
            </g>
        </g>
    </g>
</svg>